# xmcd
#
# Track frame offsets: 
#        150
#        13666
#        26092
#        45384
#        62367
#        78923
#        178721
#        193927
#
# Disc length: 4097 seconds
#
# Revision: 0
# Processed by: cddbd v1.5.2PL0 Copyright (c) Steve Scherf et al.
# Submitted via: ExactAudioCopy v0.95b3
#
DISCID=5d0fff08
DTITLE=Jimi Hendrix  - Moonbeams and Fairytales - Disc 12
DYEAR=1900
DGENRE=
TTITLE0=The In Sound
TTITLE1=The In Sound
TTITLE2=The STP With LSD
TTITLE3=The Burning of the Midnight Lamp
TTITLE4=The Burning of the Midnight Lamp
TTITLE5=The Burning of the Midnight Lamp
TTITLE6=The Burning of the Midnight Lamp
TTITLE7=Interview (Dan Paulson)
EXTD=
EXTT0=
EXTT1=
EXTT2=
EXTT3=
EXTT4=
EXTT5=
EXTT6=
EXTT7=
PLAYORDER=
